<svg width="12" height="12" viewBox="0 0 12 12" fill="none" xmlns="http://www.w3.org/2000/svg">
<path d="M11.3332 3.33333H9.45984C9.15984 2.81333 8.7465 2.36667 8.2465 2.02667L9.33317 0.94L8.39317 0L6.9465 1.44667C6.63984 1.37333 6.3265 1.33333 5.99984 1.33333C5.67317 1.33333 5.35984 1.37333 5.05984 1.44667L3.6065 0L2.6665 0.94L3.7465 2.02667C3.25317 2.36667 2.83984 2.81333 2.53984 3.33333H0.666504V4.66667H2.05984C2.0265 4.88667 1.99984 5.10667 1.99984 5.33333V6H0.666504V7.33333H1.99984V8C1.99984 8.22667 2.0265 8.44667 2.05984 8.66667H0.666504V10H2.53984C3.23317 11.1933 4.51984 12 5.99984 12C7.47984 12 8.7665 11.1933 9.45984 10H11.3332V8.66667H9.93984C9.97317 8.44667 9.99984 8.22667 9.99984 8V7.33333H11.3332V6H9.99984V5.33333C9.99984 5.10667 9.97317 4.88667 9.93984 4.66667H11.3332V3.33333ZM8.6665 8C8.6665 8.14667 8.6465 8.31333 8.61984 8.46667L8.55317 8.9L8.3065 9.33333C7.8265 10.16 6.9465 10.6667 5.99984 10.6667C5.05317 10.6667 4.17317 10.1533 3.69317 9.33333L3.4465 8.90667L3.37984 8.47333C3.35317 8.32 3.33317 8.15333 3.33317 8V5.33333C3.33317 5.18 3.35317 5.01333 3.37984 4.86667L3.4465 4.43333L3.69317 4C3.89317 3.65333 4.17317 3.35333 4.49984 3.12667L4.87984 2.86667L5.37317 2.74667C5.57984 2.69333 5.79317 2.66667 5.99984 2.66667C6.21317 2.66667 6.41984 2.69333 6.63317 2.74667L7.0865 2.85333L7.49317 3.13333C7.8265 3.36 8.09984 3.65333 8.29984 4.00667L8.55317 4.44L8.61984 4.87333C8.6465 5.02 8.6665 5.18667 8.6665 5.33333V8ZM4.6665 7.33333H7.33317V8.66667H4.6665V7.33333ZM4.6665 4.66667H7.33317V6H4.6665V4.66667Z" fill="#55596D"/>
</svg>
