<svg width="12" height="14" viewBox="0 0 12 14" fill="none" xmlns="http://www.w3.org/2000/svg">
<path d="M10.988 7.40107C9.9413 4.68107 6.21464 4.5344 7.11464 0.58107C7.1813 0.287737 6.86797 0.0610702 6.61464 0.214404C4.19464 1.64107 2.45464 4.50107 3.91464 8.24774C4.03464 8.5544 3.67464 8.84107 3.41464 8.64107C2.20797 7.72774 2.0813 6.4144 2.18797 5.4744C2.22797 5.12774 1.77464 4.96107 1.5813 5.24774C1.12797 5.94107 0.667969 7.06107 0.667969 8.74774C0.921302 12.4811 4.07464 13.6277 5.20797 13.7744C6.82797 13.9811 8.5813 13.6811 9.8413 12.5277C11.228 11.2411 11.7346 9.18774 10.988 7.40107ZM4.8013 10.7544C5.7613 10.5211 6.25464 9.82774 6.38797 9.2144C6.60797 8.26107 5.74797 7.32774 6.32797 5.82107C6.54797 7.06774 8.50797 7.84774 8.50797 9.20774C8.5613 10.8944 6.73464 12.3411 4.8013 10.7544Z" fill="#55596D"/>
</svg>
