<svg width="12" height="16" viewBox="0 0 12 16" fill="none" xmlns="http://www.w3.org/2000/svg">
<path d="M5.99988 0C5.93863 0 5.87707 0.000937482 5.8152 0.00281245C2.53151 0.101248 0 2.96619 0 6.25144V14.4988C0 14.8 0.246558 14.9997 0.50374 14.9997C0.62655 14.9997 0.75186 14.9541 0.853733 14.8522L1.63247 14.2732C1.72184 14.2069 1.82653 14.1744 1.93059 14.1744C2.06902 14.1744 2.20621 14.2316 2.30464 14.3425L3.6468 15.8534C3.7443 15.9509 3.87242 16 4.00023 16C4.12804 16 4.25617 15.9513 4.35366 15.8534L5.62614 14.4207C5.72551 14.3088 5.8627 14.2525 5.99988 14.2525C6.13707 14.2525 6.27425 14.3085 6.37363 14.4207L7.6461 15.8534C7.7436 15.9509 7.87172 16 7.99953 16C8.12734 16 8.25546 15.9513 8.35296 15.8534L9.69512 14.3425C9.77815 14.2489 9.89326 14.1899 10.0177 14.177C10.1422 14.1642 10.2669 14.1985 10.3673 14.2732L11.146 14.8522C11.2479 14.9541 11.3732 14.9997 11.496 14.9997C11.7529 14.9997 11.9998 14.8 11.9998 14.4988V5.99988C11.9998 2.6862 9.31357 0 5.99988 0ZM10.9998 13.4972L10.9645 13.471C10.7039 13.2769 10.3945 13.1747 10.0695 13.1747C9.64106 13.1747 9.23232 13.3585 8.94795 13.6785L7.99984 14.7456L7.12142 13.7566C6.83705 13.4363 6.42831 13.2529 5.99988 13.2529C5.57145 13.2529 5.16271 13.4366 4.87834 13.7566L3.99992 14.7456L3.05182 13.6785C2.91104 13.5201 2.73832 13.3933 2.54501 13.3065C2.3517 13.2196 2.14219 13.1748 1.93027 13.1747C1.60559 13.1747 1.29622 13.2772 1.0356 13.471L0.99998 13.4972V6.25144C0.99998 3.43743 3.17369 1.08248 5.8452 1.00248L5.99988 0.99998C8.7567 0.99998 10.9998 3.24306 10.9998 5.99988V13.4972ZM3.99992 4.9999C3.44775 4.9999 2.99994 5.44771 2.99994 5.99988C2.99994 6.55206 3.44775 6.99986 3.99992 6.99986C4.5521 6.99986 4.9999 6.55206 4.9999 5.99988C4.9999 5.44771 4.5521 4.9999 3.99992 4.9999ZM7.99984 4.9999C7.44767 4.9999 6.99986 5.44771 6.99986 5.99988C6.99986 6.55206 7.44767 6.99986 7.99984 6.99986C8.55202 6.99986 8.99982 6.55206 8.99982 5.99988C8.99982 5.44771 8.55202 4.9999 7.99984 4.9999Z" fill="#55596D"/>
</svg>
