<svg
    width="14"
    height="12"
    viewBox="0 0 14 12"
    fill="none"
    xmlns="http://www.w3.org/2000/svg"
>
    <path
    d="M7.00016 11.3334H0.333496V10.0001H4.16683C3.68016 8.12675 2.20683 6.66008 0.333496 6.17341C0.760163 6.06675 1.20683 6.00008 1.66683 6.00008C4.6135 6.00008 7.00016 8.38675 7.00016 11.3334ZM13.6668 6.17341C13.2402 6.06675 12.7935 6.00008 12.3335 6.00008C10.3802 6.00008 8.68016 7.05341 7.74683 8.62008C7.94016 9.06008 8.10016 9.52008 8.1935 10.0001C8.28016 10.4334 8.32683 10.8801 8.32683 11.3334H13.6602V10.0001H9.82683C10.3202 8.12675 11.7935 6.66008 13.6668 6.17341ZM9.42683 5.34675C9.94683 3.95341 10.9135 2.78675 12.1535 2.01341C9.2935 2.10675 7.00016 4.44675 7.00016 7.33341C7.00016 7.34008 7.00016 7.34675 7.00016 7.34675C7.6335 6.50008 8.46683 5.81341 9.42683 5.34675ZM6.6135 3.90008C6.0535 2.44008 4.92016 1.26008 3.46683 0.666748C4.42683 1.90675 5.00016 3.45341 5.00016 5.14008C5.00016 5.28008 4.98016 5.41341 4.9735 5.54675C5.26016 5.70675 5.52683 5.89341 5.78683 6.09341C5.92683 5.30675 6.22016 4.56675 6.6135 3.90008Z"
    fill="#55596D"
    />
</svg>