<svg width="16" height="14" viewBox="0 0 16 14" fill="none" xmlns="http://www.w3.org/2000/svg">
<path d="M15.8729 12.1675L8.67299 0.967594C8.52575 0.738596 8.27225 0.600098 8 0.600098C7.72775 0.600098 7.47426 0.738596 7.32701 0.967594L0.127077 12.1675C0.0493791 12.2883 0.0056604 12.4279 0.000513586 12.5715C-0.00463323 12.7151 0.0289818 12.8574 0.0978276 12.9835C0.166706 13.1096 0.268259 13.2148 0.391824 13.288C0.515389 13.3613 0.656407 13.4 0.800071 13.4H15.1999C15.4927 13.4 15.7619 13.2402 15.9022 12.9832C15.971 12.8572 16.0046 12.7149 15.9995 12.5713C15.9943 12.4278 15.9506 12.2883 15.8729 12.1675ZM8 1.40009L10.5715 5.40005H7.8345L6.40002 6.83454L5.24653 5.6833L8 1.40009ZM0.800071 12.6L4.80478 6.37029L6.40002 7.96553L8.1655 6.20004H11.0855L15.1999 12.6H0.800071Z" fill="#55596D"/>
</svg>
