<svg width="14" height="14" viewBox="0 0 14 14" fill="none" xmlns="http://www.w3.org/2000/svg">
<path d="M7.33317 5.93992L9.99984 3.27325L9.05984 2.33325L7.33317 4.05992V1.66659H5.99984V4.05992L4.27317 2.33325L3.33317 3.27325L5.99984 5.93992V6.99992H4.93984L2.27317 4.33325L1.33317 5.27325L3.05984 6.99992H0.666504V8.33325H3.05984L1.33317 10.0599L2.27317 10.9999L4.93984 8.33325H5.99984V9.39325L3.33317 12.0599L4.27317 12.9999L5.99984 11.2733V13.6666H7.33317V11.2733L9.05984 12.9999L9.99984 12.0599L7.33317 9.39325V8.33325H8.39317L11.0598 10.9999L11.9998 10.0599L10.2732 8.33325H12.6665V6.99992H7.33317V5.93992Z" fill="#55596D"/>
<path d="M13.3332 0.333252H11.9998V3.66659H13.3332V0.333252Z" fill="#55596D"/>
<path d="M13.3332 4.33325H11.9998V5.66659H13.3332V4.33325Z" fill="#55596D"/>
</svg>
