<svg width="14" height="14" viewBox="0 0 14 14" fill="none" xmlns="http://www.w3.org/2000/svg">
<path d="M7.00016 0.333252C3.32016 0.333252 0.333496 3.31992 0.333496 6.99992C0.333496 10.6799 3.32016 13.6666 7.00016 13.6666C10.6802 13.6666 13.6668 10.6799 13.6668 6.99992C13.6668 3.31992 10.6802 0.333252 7.00016 0.333252ZM1.66683 6.99992C1.66683 6.59325 1.72016 6.19325 1.80683 5.81325L4.9935 8.99992V9.66659C4.9935 10.3999 5.5935 10.9999 6.32683 10.9999V12.2866C3.70683 11.9533 1.66683 9.71325 1.66683 6.99992ZM10.9268 10.5999C10.7535 10.0599 10.2602 9.66659 9.66016 9.66659H8.9935V7.66659C8.9935 7.29992 8.6935 6.99992 8.32683 6.99992H4.32683V5.66659H5.66016C6.02683 5.66659 6.32683 5.36659 6.32683 4.99992V3.66659H7.66016C8.3935 3.66659 8.9935 3.06659 8.9935 2.33325V2.05992C10.9468 2.84659 12.3335 4.76659 12.3335 6.99992C12.3335 8.38659 11.7935 9.65325 10.9268 10.5999Z" fill="#55596D"/>
</svg>
