<svg width="14" height="16" viewBox="0 0 14 16" fill="none" xmlns="http://www.w3.org/2000/svg">
<path d="M8.25002 5.00003C8.66377 5.00003 9.00002 4.66378 9.00002 4.25003C9.00002 3.83627 8.66377 3.50002 8.25002 3.50002C7.83626 3.50002 7.50001 3.83627 7.50001 4.25003C7.50001 4.66378 7.83626 5.00003 8.25002 5.00003ZM5.75 5.00003C6.16375 5.00003 6.50001 4.66378 6.50001 4.25003C6.50001 3.83627 6.16375 3.50002 5.75 3.50002C5.33625 3.50002 5 3.83627 5 4.25003C5 4.66378 5.33625 5.00003 5.75 5.00003ZM4.21968 7.12286L4.01936 8.06786C3.91905 8.5413 4.22249 8.99974 4.63593 8.99974H9.36409C9.77753 8.99974 10.081 8.5413 9.98065 8.06786L9.78034 7.12286C10.8203 6.39035 11.5 5.27097 11.5 4.00003C11.5 1.79095 9.48534 0 7.00001 0C4.51468 0 2.49998 1.79095 2.49998 4.00003C2.49998 5.27097 3.17967 6.39035 4.21968 7.12286ZM7.00001 1.00001C8.93002 1.00001 10.5 2.34564 10.5 4.00003C10.5 4.88503 10.0278 5.72535 9.2044 6.30535L8.66533 6.68504L8.8019 7.33005L8.94377 7.99974H5.05593L5.19781 7.33005L5.33437 6.68504L4.79531 6.30535C3.97218 5.72535 3.49999 4.88503 3.49999 4.00003C3.49999 2.34564 5.07 1.00001 7.00001 1.00001ZM8.41002 13.0001L13.8485 10.9394C13.9754 10.8851 14.0341 10.7379 13.9797 10.611L13.7826 10.1513C13.7696 10.1211 13.7509 10.0938 13.7274 10.0709C13.7039 10.048 13.6761 10.0299 13.6457 10.0177C13.6152 10.0055 13.5826 9.99947 13.5498 9.99987C13.517 10.0003 13.4846 10.0071 13.4544 10.0201L7.00001 12.466L0.545905 10.0204C0.515742 10.0074 0.483328 10.0006 0.450513 10.0002C0.417698 9.99978 0.385126 10.0058 0.354656 10.018C0.324186 10.0302 0.296415 10.0483 0.272929 10.0712C0.249443 10.0941 0.230703 10.1215 0.217778 10.1516L0.0205889 10.6113C-0.0337864 10.7382 0.024964 10.8854 0.15184 10.9398L5.59 13.0001L0.151527 15.0607C0.0246515 15.1151 -0.0340989 15.2623 0.0202764 15.3892L0.217465 15.8485C0.23039 15.8787 0.249131 15.906 0.272617 15.9289C0.296102 15.9519 0.323873 15.9699 0.354343 15.9821C0.384813 15.9943 0.417386 16.0004 0.4502 16C0.483015 15.9996 0.515429 15.9927 0.545592 15.9798L7.00001 13.5341L13.4541 15.9798C13.4843 15.9927 13.5167 15.9996 13.5495 16C13.5823 16.0004 13.6149 15.9943 13.6454 15.9821C13.6758 15.9699 13.7036 15.9519 13.7271 15.9289C13.7506 15.906 13.7693 15.8787 13.7822 15.8485L13.9794 15.3892C14.0338 15.2623 13.9751 15.1151 13.8482 15.0607L8.41002 13.0001Z" fill="#55596D"/>
</svg>
