<svg width="14" height="14" viewBox="0 0 14 14" fill="none" xmlns="http://www.w3.org/2000/svg">
<path d="M7.00016 6.11678C6.26683 6.11678 5.66683 6.71678 5.66683 7.45011C5.66683 8.18345 6.26683 8.78345 7.00016 8.78345C7.7335 8.78345 8.3335 8.18345 8.3335 7.45011C8.3335 6.71678 7.7335 6.11678 7.00016 6.11678ZM11.0002 7.45011C11.0002 5.24345 9.20683 3.45011 7.00016 3.45011C4.7935 3.45011 3.00016 5.24345 3.00016 7.45011C3.00016 8.93011 3.80683 10.2168 5.00016 10.9101L5.66683 9.75011C4.8735 9.28345 4.3335 8.43678 4.3335 7.45011C4.3335 5.97678 5.52683 4.78345 7.00016 4.78345C8.4735 4.78345 9.66683 5.97678 9.66683 7.45011C9.66683 8.43678 9.12683 9.28345 8.3335 9.75011L9.00016 10.9101C10.1935 10.2168 11.0002 8.93011 11.0002 7.45011ZM7.00016 0.783447C3.32016 0.783447 0.333496 3.77011 0.333496 7.45011C0.333496 9.91678 1.6735 12.0634 3.66016 13.2168L4.32683 12.0634C2.74016 11.1368 1.66683 9.42345 1.66683 7.45011C1.66683 4.50345 4.0535 2.11678 7.00016 2.11678C9.94683 2.11678 12.3335 4.50345 12.3335 7.45011C12.3335 9.42345 11.2602 11.1368 9.66683 12.0634L10.3335 13.2168C12.3268 12.0634 13.6668 9.91678 13.6668 7.45011C13.6668 3.77011 10.6802 0.783447 7.00016 0.783447Z" fill="#55596D"/>
</svg>
