<svg width="16" height="16" viewBox="0 0 16 16" fill="none" xmlns="http://www.w3.org/2000/svg">
<path d="M12.881 0.88916H3.12021C3.00355 0.88916 2.89522 0.950269 2.83411 1.05027L0.0481042 5.57232C-0.026893 5.69453 -0.0130046 5.85286 0.0814362 5.96119L7.74781 14.9942C7.88114 15.1497 8.12002 15.1497 8.25335 14.9942L15.9197 5.96119C16.0142 5.85286 16.0253 5.69453 15.9531 5.57232L13.1671 1.05027C13.1059 0.950269 12.9976 0.88916 12.881 0.88916ZM12.5032 1.88912L14.567 5.33344H12.2615L10.6838 1.88912H12.5032ZM9.58385 1.88912L11.1616 5.33344H4.83681L6.41731 1.88912H9.58385ZM3.49797 1.88912H5.31735L3.73963 5.33344H1.43416L3.49797 1.88912ZM1.70082 6.22229H3.72852L6.00066 11.5554L1.70082 6.22229ZM4.81181 6.22229H11.1866L8.00058 13.5498L4.81181 6.22229ZM10.0005 11.5554L12.2726 6.22229H14.3003L10.0005 11.5554Z" fill="#55596D"/>
</svg>
