<svg width="16" height="16" viewBox="0 0 16 16" fill="none" xmlns="http://www.w3.org/2000/svg">
<path d="M15.5011 0C15.4773 0 15.4533 0.0015625 15.4289 0.0053125L12.4998 0.5L5.16422 7.83563L3.94078 6.61219C3.89447 6.56565 3.83938 6.52876 3.77871 6.50366C3.71804 6.47855 3.653 6.46573 3.58734 6.46594C3.45953 6.46594 3.33141 6.51469 3.23391 6.61219L2.14672 7.69969C2.065 7.78143 2.01412 7.88896 2.00272 8.00399C1.99133 8.11901 2.02013 8.23443 2.08422 8.33062L3.51859 10.4819L2.27516 11.7253L1.75141 11.4634C1.69119 11.4332 1.62473 11.4175 1.55734 11.4175C1.44453 11.4175 1.33359 11.4612 1.25016 11.5447L0.127031 12.6675C-0.0423438 12.8372 -0.0423438 13.1119 0.127031 13.2812L2.71859 15.8728C2.80328 15.9575 2.91453 16 3.02547 16C3.13641 16 3.24766 15.9575 3.33234 15.8728L4.45516 14.75C4.51955 14.6856 4.56204 14.6025 4.57662 14.5126C4.5912 14.4227 4.57713 14.3305 4.53641 14.2491L4.27453 13.7253L5.51766 12.4822L7.66891 13.9166C7.75359 13.9728 7.85016 14.0003 7.94609 14.0003C8.07516 14.0003 8.20328 13.9506 8.29984 13.8538L9.38734 12.7666C9.58266 12.5712 9.58266 12.2547 9.38734 12.0594L8.16391 10.8359L15.4998 3.5L15.9945 0.570938C16.0383 0.265313 15.7989 0 15.5011 0ZM8.32703 12.4125L7.88297 12.8566L6.07297 11.6497L5.39078 11.195L4.81109 11.7747L3.56797 13.0178L3.05828 13.5275L3.38047 14.1722L3.45984 14.3313L3.02547 14.7656L1.23422 12.9744L1.66859 12.54L1.82734 12.6194L2.47203 12.9419L2.98172 12.4322L4.22516 11.1888L4.80484 10.6091L4.35016 9.92688L3.14328 8.11687L3.58734 7.67281L8.32703 12.4125ZM14.567 3.01875L7.45703 10.1284L5.87141 8.54281L12.9811 1.43281L14.8892 1.11031L14.567 3.01875Z" fill="#55596D"/>
</svg>
