<svg width="12" height="14" viewBox="0 0 12 14" fill="none" xmlns="http://www.w3.org/2000/svg">
<path d="M5.99984 0.333252C2.4465 3.36659 0.666504 5.98659 0.666504 8.19992C0.666504 11.5199 3.19984 13.6666 5.99984 13.6666C8.79984 13.6666 11.3332 11.5199 11.3332 8.19992C11.3332 5.98659 9.55317 3.36659 5.99984 0.333252ZM5.99984 12.3333C3.7665 12.3333 1.99984 10.6199 1.99984 8.19992C1.99984 6.63992 3.29984 4.57325 5.99984 2.10659C8.69984 4.57325 9.99984 6.63325 9.99984 8.19992C9.99984 10.6199 8.23317 12.3333 5.99984 12.3333ZM3.21984 8.33325C3.4665 8.33325 3.6665 8.50659 3.71317 8.74659C3.9865 10.2266 5.23317 10.7333 6.13984 10.6599C6.4265 10.6466 6.6665 10.8733 6.6665 11.1599C6.6665 11.4266 6.45317 11.6466 6.1865 11.6599C4.7665 11.7466 3.1065 10.9333 2.7265 8.91325C2.67317 8.61325 2.91317 8.33325 3.21984 8.33325Z" fill="#55596D"/>
</svg>
